<svg xmlns="http://www.w3.org/2000/svg" width="1440" height="980" viewBox="0 0 1440 980">
  <rect width="1440" height="980" fill="#f6f7f9"/>
  <rect x="0" y="0" width="240" height="980" fill="#111827"/>
  <text x="24" y="38" fill="#ffffff" font-family="Arial" font-size="18" font-weight="700">BRC Owner Console</text>
  <text x="24" y="68" fill="#93c5fd" font-family="Arial" font-size="12">Local / Simulation</text>
  <g fill="#d1d5db" font-family="Arial" font-size="14">
    <text x="24" y="130">Command Center</text>
    <text x="24" y="170">LLM Copilot</text>
    <text x="24" y="210">Strategy / Playbook</text>
    <text x="24" y="250">Risk &amp; Account</text>
    <text x="24" y="290">Runtime Control</text>
    <text x="24" y="330">Campaign Review</text>
    <text x="24" y="370">Audit Trail</text>
    <text x="24" y="410">Developer Detail</text>
  </g>

  <rect x="240" y="0" width="1200" height="64" fill="#ffffff"/>
  <text x="272" y="40" fill="#111827" font-family="Arial" font-size="20" font-weight="700">Command Center</text>
  <rect x="1170" y="18" width="110" height="28" rx="4" fill="#fef3c7" stroke="#f59e0b"/>
  <text x="1188" y="37" fill="#92400e" font-family="Arial" font-size="12" font-weight="700">TESTNET</text>
  <rect x="1294" y="18" width="110" height="28" rx="4" fill="#fee2e2" stroke="#ef4444"/>
  <text x="1310" y="37" fill="#991b1b" font-family="Arial" font-size="12" font-weight="700">LIVE BLOCKED</text>

  <rect x="272" y="96" width="1088" height="130" rx="6" fill="#ffffff" stroke="#d1d5db"/>
  <text x="296" y="128" fill="#111827" font-family="Arial" font-size="18" font-weight="700">Current Operating Status</text>
  <text x="296" y="160" fill="#374151" font-family="Arial" font-size="15">Controlled simulation/testnet path is available only when environment, audit, flatness, and Owner confirmation pass.</text>
  <text x="296" y="190" fill="#6b7280" font-family="Arial" font-size="14">Next: ask LLM Copilot to prepare a monitored TF-001 or controlled testnet action card.</text>

  <g font-family="Arial">
    <rect x="272" y="254" width="255" height="130" rx="6" fill="#ffffff" stroke="#d1d5db"/>
    <text x="294" y="284" fill="#111827" font-size="15" font-weight="700">Environment</text>
    <text x="294" y="318" fill="#374151" font-size="14">TRADING_ENV: simulation</text>
    <text x="294" y="346" fill="#374151" font-size="14">Exchange: Binance testnet</text>
    <text x="294" y="370" fill="#991b1b" font-size="13">Live: unauthorized</text>

    <rect x="549" y="254" width="255" height="130" rx="6" fill="#ffffff" stroke="#d1d5db"/>
    <text x="571" y="284" fill="#111827" font-size="15" font-weight="700">Runtime State</text>
    <text x="571" y="318" fill="#374151" font-size="14">State: observe / monitor</text>
    <text x="571" y="346" fill="#374151" font-size="14">New entries: blocked until card</text>
    <text x="571" y="370" fill="#047857" font-size="13">Cut-off controls visible</text>

    <rect x="826" y="254" width="255" height="130" rx="6" fill="#ffffff" stroke="#d1d5db"/>
    <text x="848" y="284" fill="#111827" font-size="15" font-weight="700">Strategy / Playbook</text>
    <text x="848" y="318" fill="#374151" font-size="14">Family: Trend Following</text>
    <text x="848" y="346" fill="#374151" font-size="14">Playbook: TF-001</text>
    <text x="848" y="370" fill="#6b7280" font-size="13">Carrier validation only</text>

    <rect x="1103" y="254" width="257" height="130" rx="6" fill="#ffffff" stroke="#d1d5db"/>
    <text x="1125" y="284" fill="#111827" font-size="15" font-weight="700">Account / Risk</text>
    <text x="1125" y="318" fill="#374151" font-size="14">Exposure: flat / unknown</text>
    <text x="1125" y="346" fill="#374151" font-size="14">Loss lock: not triggered</text>
    <text x="1125" y="370" fill="#374151" font-size="14">Risk decision: ALLOW_READ</text>
  </g>

  <rect x="272" y="416" width="700" height="210" rx="6" fill="#ffffff" stroke="#d1d5db"/>
  <text x="296" y="448" fill="#111827" font-family="Arial" font-size="16" font-weight="700">Action Readiness</text>
  <rect x="296" y="476" width="200" height="44" rx="4" fill="#ecfdf5" stroke="#10b981"/>
  <text x="316" y="504" fill="#065f46" font-family="Arial" font-size="13" font-weight="700">Read status allowed</text>
  <rect x="516" y="476" width="220" height="44" rx="4" fill="#fef3c7" stroke="#f59e0b"/>
  <text x="536" y="504" fill="#92400e" font-family="Arial" font-size="13" font-weight="700">testnet_rehearsal needs card</text>
  <rect x="756" y="476" width="190" height="44" rx="4" fill="#fee2e2" stroke="#ef4444"/>
  <text x="776" y="504" fill="#991b1b" font-family="Arial" font-size="13" font-weight="700">Live blocked</text>
  <text x="296" y="558" fill="#374151" font-family="Arial" font-size="14">Primary next click: LLM Copilot -> Application Action Card -> Owner confirmation.</text>
  <text x="296" y="590" fill="#6b7280" font-family="Arial" font-size="13">No direct order, transfer, withdrawal, or parameter mutation from this page.</text>

  <rect x="1000" y="416" width="360" height="210" rx="6" fill="#ffffff" stroke="#d1d5db"/>
  <text x="1024" y="448" fill="#111827" font-family="Arial" font-size="16" font-weight="700">Fast Cut-Off</text>
  <rect x="1024" y="476" width="312" height="38" rx="4" fill="#f3f4f6" stroke="#d1d5db"/>
  <text x="1044" y="501" fill="#111827" font-family="Arial" font-size="13">Pause new entries</text>
  <rect x="1024" y="528" width="312" height="38" rx="4" fill="#f3f4f6" stroke="#d1d5db"/>
  <text x="1044" y="553" fill="#111827" font-family="Arial" font-size="13">Emergency stop runtime</text>
  <rect x="1024" y="580" width="312" height="38" rx="4" fill="#fee2e2" stroke="#ef4444"/>
  <text x="1044" y="605" fill="#991b1b" font-family="Arial" font-size="13" font-weight="700">Emergency flatten</text>

  <rect x="272" y="656" width="520" height="250" rx="6" fill="#ffffff" stroke="#d1d5db"/>
  <text x="296" y="688" fill="#111827" font-family="Arial" font-size="16" font-weight="700">Risk &amp; Account: Exposure / Orders</text>
  <line x1="296" y1="716" x2="760" y2="716" stroke="#e5e7eb"/>
  <text x="296" y="748" fill="#374151" font-family="Arial" font-size="14">BTCUSDT: flat / no open orders</text>
  <text x="296" y="780" fill="#374151" font-family="Arial" font-size="14">ETHUSDT: flat / no open orders</text>
  <text x="296" y="812" fill="#6b7280" font-family="Arial" font-size="13">Flatness proof timestamp + order source required</text>
  <text x="296" y="844" fill="#991b1b" font-family="Arial" font-size="13">Unknown exposure -> attention_required</text>

  <rect x="824" y="656" width="536" height="250" rx="6" fill="#ffffff" stroke="#d1d5db"/>
  <text x="848" y="688" fill="#111827" font-family="Arial" font-size="16" font-weight="700">Latest Evidence / Audit</text>
  <line x1="848" y1="716" x2="1328" y2="716" stroke="#e5e7eb"/>
  <text x="848" y="748" fill="#374151" font-family="Arial" font-size="14">Last workflow: read-only status query</text>
  <text x="848" y="780" fill="#374151" font-family="Arial" font-size="14">Last review: no unresolved campaign review</text>
  <text x="848" y="812" fill="#6b7280" font-family="Arial" font-size="13">Click Audit Trail for full object chain.</text>
</svg>
